<?xml version="1.0" encoding="utf-8"?>
<!-- Generator: Adobe Illustrator 16.0.0, SVG Export Plug-In . SVG Version: 6.00 Build 0)  -->
<!DOCTYPE svg PUBLIC "-//W3C//DTD SVG 1.1//EN" "http://www.w3.org/Graphics/SVG/1.1/DTD/svg11.dtd">
<svg version="1.1" id="Layer_1" xmlns="http://www.w3.org/2000/svg" xmlns:xlink="http://www.w3.org/1999/xlink" x="0px" y="0px"
	 width="94px" height="94px" viewBox="-35 -35 94 94" enable-background="new -35 -35 94 94" xml:space="preserve">
<path fill="#002868" d="M53.92,8.227L34.865,8.189c-2.095,0-3.811,1.716-3.811,3.811v34.298c0,2.096,1.716,3.812,3.811,3.812H53.92
	c2.096,0,3.811-1.716,3.811-3.812V12C57.73,9.905,56.016,8.227,53.92,8.227z M53.92,42.487H34.865V15.811H53.92V42.487z
	 M42.487-26.109h-68.596c-4.229,0-7.622,3.392-7.622,7.622v45.73c0,4.19,3.392,7.622,7.622,7.622H0.567v7.622h-7.622v7.622h30.487
	v-7.622h-7.622v-7.622h15.244v-7.622h-57.164v-45.73h68.596V8.206l7.622,0.014v-26.707C50.109-22.717,46.678-26.109,42.487-26.109z"
	/>
</svg>
