<?xml version="1.0" encoding="utf-8"?>
<!-- Generator: Adobe Illustrator 16.0.0, SVG Export Plug-In . SVG Version: 6.00 Build 0)  -->
<!DOCTYPE svg PUBLIC "-//W3C//DTD SVG 1.1//EN" "http://www.w3.org/Graphics/SVG/1.1/DTD/svg11.dtd">
<svg version="1.1" id="Layer_1" xmlns="http://www.w3.org/2000/svg" xmlns:xlink="http://www.w3.org/1999/xlink" x="0px" y="0px"
	 width="94px" height="94px" viewBox="-35 -35 94 94" enable-background="new -35 -35 94 94" xml:space="preserve">
<path fill="none" d="M0,0h24v24H0V0z"/>
<path fill="#002868" d="M30.804,16.179c-5.015,0-12.829,1.42-18.804,4.179c-5.976-2.8-13.788-4.179-18.804-4.179
	c-9.067,0-27.161,4.513-27.161,13.58V41.25h91.929V29.759C57.965,20.691,39.871,16.179,30.804,16.179z M14.09,34.982h-41.786v-5.224
	c0-2.257,10.697-7.313,20.893-7.313s20.894,5.056,20.894,7.313V34.982z M51.696,34.982H20.357v-5.224
	c0-1.922-0.837-3.591-2.171-5.097c3.673-1.252,8.186-2.216,12.617-2.216c10.193,0,20.893,5.056,20.893,7.313V34.982z M-6.804,12
	C1.262,12,7.821,5.44,7.821-2.625S1.262-17.25-6.804-17.25s-14.625,6.56-14.625,14.625S-14.869,12-6.804,12z M-6.804-10.982
	c4.597,0,8.357,3.76,8.357,8.357s-3.761,8.357-8.357,8.357s-8.357-3.761-8.357-8.357S-11.4-10.982-6.804-10.982z M30.804,12
	c8.063,0,14.625-6.56,14.625-14.625S38.867-17.25,30.804-17.25S16.179-10.69,16.179-2.625S22.74,12,30.804,12z M30.804-10.982
	c4.595,0,8.356,3.76,8.356,8.357s-3.762,8.357-8.356,8.357s-8.357-3.761-8.357-8.357S26.209-10.982,30.804-10.982z"/>
</svg>
