<?xml version="1.0" encoding="utf-8"?>
<!-- Generator: Adobe Illustrator 16.0.0, SVG Export Plug-In . SVG Version: 6.00 Build 0)  -->
<!DOCTYPE svg PUBLIC "-//W3C//DTD SVG 1.1//EN" "http://www.w3.org/Graphics/SVG/1.1/DTD/svg11.dtd">
<svg version="1.1" id="Layer_1" xmlns="http://www.w3.org/2000/svg" xmlns:xlink="http://www.w3.org/1999/xlink" x="0px" y="0px"
	 width="94px" height="94px" viewBox="-35 -35 94 94" enable-background="new -35 -35 94 94" xml:space="preserve">
<path fill="none" d="M0,0h24v24H0V0z"/>
<path fill="#002868" d="M6.931,37.348c0,2.787,2.282,5.069,5.069,5.069s5.069-2.282,5.069-5.069s-2.282-5.07-5.069-5.07
	S6.931,34.561,6.931,37.348z M6.931-33.625v20.278h10.139v-9.733C34.258-20.598,47.486-5.896,47.486,12
	c0,19.619-15.867,35.486-35.486,35.486S-23.486,31.619-23.486,12c0-8.518,2.99-16.322,8.011-22.406L12,17.069l7.148-7.148
	l-34.474-34.472v0.102c-11.102,8.315-18.3,21.493-18.3,36.449c0,25.193,20.379,45.625,45.625,45.625
	c25.199,0,45.625-20.432,45.625-45.625S37.199-33.625,12-33.625H6.931z M42.417,12c0-2.787-2.282-5.069-5.069-5.069
	s-5.07,2.282-5.07,5.069s2.283,5.069,5.07,5.069S42.417,14.787,42.417,12z M-18.417,12c0,2.787,2.282,5.069,5.069,5.069
	c2.788,0,5.07-2.282,5.07-5.069s-2.282-5.069-5.07-5.069C-16.134,6.931-18.417,9.213-18.417,12z"/>
</svg>
