<?xml version="1.0" encoding="utf-8"?>
<!-- Generator: Adobe Illustrator 16.0.0, SVG Export Plug-In . SVG Version: 6.00 Build 0)  -->
<!DOCTYPE svg PUBLIC "-//W3C//DTD SVG 1.1//EN" "http://www.w3.org/Graphics/SVG/1.1/DTD/svg11.dtd">
<svg version="1.1" id="Layer_1" xmlns="http://www.w3.org/2000/svg" xmlns:xlink="http://www.w3.org/1999/xlink" x="0px" y="0px"
	 width="94px" height="94px" viewBox="-35 -35 94 94" enable-background="new -35 -35 94 94" xml:space="preserve">
<path fill="#002868" d="M12-30c-23.184,0-42,18.816-42,42c0,23.182,18.816,42,42,42c23.182,0,42-18.818,42-42
	C54-11.184,35.182-30,12-30z M7.8,45.305C-8.791,43.246-21.6,29.137-21.6,12c0-2.604,0.336-5.082,0.882-7.519L-0.6,24.6v4.2
	c0,4.618,3.78,8.4,8.4,8.4V45.305z M36.781,34.641C35.69,31.236,32.582,28.8,28.8,28.8h-4.2V16.2c0-2.31-1.891-4.2-4.199-4.2H-4.8
	V3.6h8.4c2.309,0,4.2-1.891,4.2-4.2V-9h8.4c4.618,0,8.399-3.779,8.399-8.4v-1.723c12.305,5,21,17.053,21,31.123
	C45.6,20.736,42.24,28.673,36.781,34.641z"/>
</svg>
