<?xml version="1.0" encoding="utf-8"?>
<!-- Generator: Adobe Illustrator 16.0.0, SVG Export Plug-In . SVG Version: 6.00 Build 0)  -->
<!DOCTYPE svg PUBLIC "-//W3C//DTD SVG 1.1//EN" "http://www.w3.org/Graphics/SVG/1.1/DTD/svg11.dtd">
<svg version="1.1" id="Layer_1" xmlns="http://www.w3.org/2000/svg" xmlns:xlink="http://www.w3.org/1999/xlink" x="0px" y="0px"
	 width="94px" height="94px" viewBox="-35 -35 94 94" enable-background="new -35 -35 94 94" xml:space="preserve">
<path fill="#002868" d="M7.6,38.4h8.8V29.6H7.6V38.4z M12-32c-24.288,0-44,19.712-44,44c0,24.286,19.712,44,44,44
	c24.286,0,44-19.714,44-44C56-12.288,36.286-32,12-32z M12,47.2c-19.405,0-35.2-15.796-35.2-35.2c0-19.405,15.795-35.2,35.2-35.2
	c19.404,0,35.2,15.795,35.2,35.2C47.2,31.404,31.404,47.2,12,47.2z M12-14.4C2.276-14.4-5.6-6.524-5.6,3.2h8.8
	c0-4.841,3.959-8.8,8.8-8.8c4.838,0,8.8,3.959,8.8,8.8c0,8.8-13.2,7.7-13.2,22h8.8c0-9.9,13.199-11,13.199-22
	C29.6-6.524,21.724-14.4,12-14.4z"/>
</svg>
